<svg width="1395" height="938" viewBox="0 0 1395 938" fill="none" xmlns="http://www.w3.org/2000/svg">
<g clip-path="url(#clip0_1_360)">
<path d="M1083.69 685.554C1086.59 683.277 1089.52 681.041 1092.38 678.711C1110.18 664.182 1130.02 653.365 1151.79 646.129C1162.78 642.472 1173.95 639.328 1185 635.84C1190.88 633.985 1196.76 632.068 1202.51 629.869C1209.44 627.222 1216.17 624.127 1221.71 618.968C1222.24 618.47 1222.88 618.057 1223.53 617.72C1224.72 617.098 1226.06 617.059 1226.94 618.063C1227.7 618.915 1228.56 620.201 1228.43 621.18C1228.19 623.09 1227.44 624.979 1226.66 626.776C1222.6 636.194 1216.58 644.288 1209.63 651.74C1202.2 659.711 1193.86 666.665 1185.39 673.499C1174.96 681.923 1165.64 691.392 1158.37 702.765C1154.35 709.061 1151.2 715.746 1149.61 723.051C1148.92 726.152 1148.52 729.403 1148.6 732.57C1148.73 738.399 1151.65 741.644 1157.34 742.823C1164.61 744.332 1171.19 742.518 1176.61 737.66C1180.44 734.225 1184.02 730.342 1187.01 726.156C1191.31 720.125 1195.25 713.852 1198.83 707.366C1203.71 698.507 1208.09 689.368 1212.7 680.359C1220.36 665.381 1228.75 650.853 1239.54 637.859C1260.17 613.03 1284.88 593.256 1313.54 578.42C1325.21 572.374 1337.68 568.445 1350.21 564.641C1357.52 562.421 1364.88 560.331 1372.13 557.893C1377.79 555.99 1383.55 555.007 1389.44 554.244C1396.04 553.391 1402.57 552.02 1409.11 550.841C1409.83 550.714 1410.53 550.417 1411.21 550.113C1412.39 549.586 1413.55 548.721 1413.08 547.364C1412.73 546.331 1411.77 545.206 1410.79 544.775C1409.78 544.337 1408.4 544.521 1407.23 544.728C1401.39 545.746 1395.58 546.831 1389.78 547.982C1386.83 548.57 1384.62 547.839 1382.56 545.522C1372.46 534.158 1370.04 521.28 1374.54 506.912C1376.95 499.231 1381.3 492.667 1386.28 486.49C1398.93 470.81 1414.27 458.728 1433.18 451.411C1441.01 448.385 1448.79 445.278 1456.53 442.034C1461.77 439.845 1466.95 437.515 1472.01 434.955C1480.82 430.495 1486.29 423.024 1489.96 414.081C1491.98 409.129 1492.1 404.026 1491.12 398.794C1490.06 393.222 1489.33 387.596 1488.31 382.018C1486.93 374.465 1488.37 367.312 1491.04 360.282C1494.36 351.603 1499.43 344.081 1505.97 337.538C1518.09 325.401 1531.56 315.102 1546.91 307.307C1554.83 303.284 1562.7 299.151 1570.48 294.864C1584.38 287.207 1597.11 277.846 1609.17 267.597C1620.57 257.909 1629.68 246.256 1637.24 233.39C1638.73 230.851 1639.6 227.953 1641.02 225.369C1641.83 223.917 1643.03 222.598 1644.31 221.535C1645.64 220.424 1648.04 221.416 1648.5 223.097C1648.75 224.042 1648.89 225.027 1649.01 225.999C1651.03 241.804 1650.83 257.56 1647.09 273.092C1642.16 293.518 1631.64 310.925 1617.31 326.069C1611.37 332.344 1605.06 338.275 1598.9 344.335C1592.54 350.587 1586.73 357.302 1581.87 364.793C1580.26 367.27 1578.66 369.802 1577.46 372.487C1573.04 382.412 1573.12 391.991 1579.55 401.273C1584.6 408.578 1589.37 416.088 1593.97 423.688C1598.59 431.317 1602.1 439.465 1604.26 448.175C1607.69 461.96 1607.34 475.548 1602.52 488.968C1593.83 513.134 1578.39 531.804 1556.54 545.149C1553.63 546.925 1550.34 548.223 1547.05 549.177C1529.75 554.198 1512.32 558.631 1494.46 561.24C1491.8 561.628 1489.15 562.327 1486.6 563.169C1485.93 563.389 1485.18 564.739 1485.27 565.475C1485.37 566.216 1486.4 567.37 1487.1 567.423C1490.01 567.662 1493.04 567.999 1495.89 567.496C1505.35 565.813 1514.79 563.934 1524.17 561.863C1530.67 560.438 1537.08 558.625 1543.52 556.913C1545.93 556.271 1547.98 556.718 1549.48 558.693C1551.41 561.23 1553.62 563.685 1554.96 566.526C1561 579.337 1562.17 592.517 1557.46 606.093C1554.1 615.813 1549.11 624.488 1542.04 631.967C1535.23 639.17 1527.84 645.726 1519.74 651.414C1502.96 663.184 1486.05 674.761 1469.26 686.514C1461.58 691.892 1453.95 697.35 1446.49 703.038C1439.6 708.287 1433.35 714.273 1427.64 720.793C1423.05 726.02 1419.21 731.737 1416.25 738.046C1413.88 743.095 1413.31 748.385 1413.4 753.912C1413.49 760.162 1420.32 766.652 1427.75 765.792C1430.66 765.456 1433.6 764.674 1436.32 763.579C1449 758.481 1460.82 751.826 1471.03 742.666C1474.86 739.224 1478.15 735.154 1481.62 731.326C1482.78 730.049 1483.7 728.55 1484.87 727.289C1487.31 724.671 1490.5 725.235 1491.94 728.623C1492.71 730.441 1493.24 732.349 1493.53 734.301C1495.71 749.064 1492.68 762.774 1484.91 775.457C1479.45 784.393 1472.6 792.153 1464.24 798.479C1459.52 802.052 1454.59 805.339 1449.71 808.69C1443.59 812.88 1437.37 816.893 1431.34 821.184C1426.08 824.911 1421.61 829.655 1418.22 835.136C1415.18 840.029 1413.25 845.264 1412.86 851.106C1412.36 858.759 1410.76 866.236 1408.64 873.616C1407.39 877.978 1405.38 881.937 1402.38 885.259C1398.91 889.099 1395.15 892.668 1391.46 896.316C1389.06 898.699 1386.11 899.612 1382.73 899.66C1369.64 899.841 1356.56 900.263 1343.48 900.369C1318.04 900.569 1292.6 900.581 1267.17 900.736C1231.37 900.949 1195.56 901.209 1159.76 901.465C1124.45 901.716 1089.14 901.979 1053.84 902.252C1019.26 902.519 984.696 902.81 950.125 903.064C918.025 903.302 885.925 903.494 853.825 903.732C815.304 904.018 776.786 904.337 738.265 904.627C702.464 904.895 666.658 905.138 630.853 905.402C595.789 905.663 560.729 905.946 525.664 906.204C490.356 906.46 455.043 906.687 419.734 906.941C383.929 907.201 348.128 907.473 312.322 907.746C277.755 908.012 243.183 908.3 208.616 908.554C176.268 908.789 143.923 908.97 111.58 909.202C72.3162 909.485 33.0586 909.769 -6.20387 910.102C-34.349 910.343 -62.4979 910.675 -90.644 910.923C-93.607 910.945 -96.569 910.801 -99.5158 910.49C-100.979 910.331 -102.393 909.872 -103.671 909.141C-106.937 907.239 -107.23 902.747 -104.306 900.376C-103.36 899.611 -102.227 899.071 -101.159 898.472C-82.2479 887.835 -67.0956 873.286 -55.769 854.779C-49.0565 843.81 -43.6093 832.17 -38.1232 820.571C-36.1276 816.356 -34.8498 811.792 -33.357 807.344C-18.6349 763.502 2.48484 722.901 28.5171 684.759C41.8907 665.161 55.7971 645.997 71.3426 628.037C86.0918 611 102.386 595.575 119.211 580.64C148.509 554.633 181.924 535.299 217.495 519.401C221.548 517.591 225.687 515.969 229.809 514.319C245.152 508.175 260.593 502.263 275.831 495.872C293.363 488.524 310.43 480.167 327.31 471.421C336.192 466.821 343.593 460.333 350.917 453.682C364.567 441.288 375.495 426.711 385.406 411.276C394.47 397.144 403.603 383.056 412.804 369.012C421.785 355.313 432.593 343.128 444.429 331.853C447.638 328.799 451.094 325.957 454.678 323.35C466.484 314.772 478.917 307.215 492.064 300.845C507.186 293.516 522.798 287.4 538.68 281.948C546.845 279.143 554.97 276.222 563.168 273.523C574.718 269.723 585.6 264.517 596.014 258.309C606.148 252.267 614.698 244.619 620.378 234.055C623.067 229.055 626.063 224.225 628.773 219.236C639.271 199.893 653.233 183.348 669.781 168.998C686.287 154.686 705.512 145.365 726.443 139.455C733.8 137.373 741.282 135.759 748.842 134.62C755.656 133.595 762.393 131.949 769.075 130.24C772.449 129.378 774.833 130.475 777.029 132.711C778.158 133.864 777.851 136.575 776.392 137.277C774.86 138.015 773.211 138.626 771.549 138.943C748.915 143.253 730.512 155.218 713.99 170.62C706.83 177.297 701.644 185.366 697.495 194.132C692.514 204.649 688.576 215.485 686.437 227.01C684.592 236.954 681.922 246.739 678.343 256.228C673.498 269.073 666.073 280.38 657.593 291.084C648.247 302.887 636.864 312.224 623.63 319.269C614.921 323.902 606.003 328.139 597.173 332.54C588.562 336.835 579.901 341.029 571.341 345.424C564.92 348.72 559.313 353.179 554.293 358.35C552.747 359.938 551.347 361.673 549.928 363.381C543.818 370.764 541.961 379.111 544.458 388.367C546.462 395.775 547.134 403.48 546.444 411.122C545.267 424.422 539.834 435.291 528.244 442.558C525.529 444.26 522.737 445.846 519.979 447.481C515.52 450.116 510.967 452.609 506.622 455.424C503.695 457.323 500.691 458.795 497.356 459.892C486.949 463.317 477.376 468.394 469.066 475.61C466.661 477.697 464.593 480.19 462.49 482.6C461.877 483.3 461.371 484.357 461.366 485.254C461.36 486.097 461.924 487.095 462.535 487.735C462.943 488.161 464.108 488.455 464.54 488.182C467.024 486.607 469.576 485.054 471.754 483.102C476.763 478.618 482.31 474.98 488.222 471.853C489.09 471.395 490.018 471.051 490.946 470.719C491.979 470.349 492.226 471.176 492.268 471.854C493.381 489.764 486.111 504.073 472.875 515.499C467.287 520.321 461.072 524.435 455.012 528.684C446.926 534.352 438.623 539.713 431.252 546.344C423.852 553 417.524 560.536 412.413 569.074C410.244 572.698 408.465 576.478 408.437 580.858C408.412 584.688 410.427 587.574 414.182 588.357C416.064 588.75 418.111 588.813 420.016 588.549C424.942 587.873 429.547 586.047 434.048 584C459.207 572.559 479.339 555.244 494.461 532.114C497.431 527.566 500.362 522.985 503.109 518.304C515.99 496.346 532.446 477.473 551.778 460.974C562.506 451.818 573.481 443.052 585.604 435.802C586.866 435.046 588.092 434.037 589.467 433.727C590.479 433.497 592.07 433.875 592.733 434.598C593.404 435.335 593.517 436.854 593.375 437.971C593.268 438.844 592.496 439.71 591.849 440.418C590.851 441.509 589.752 442.516 588.618 443.469C579.032 451.508 571.784 461.478 565.131 471.924C560.183 479.692 556.7 488.132 554.519 497.06C552.298 506.163 550.367 515.34 548.336 524.493C546.568 532.469 544.171 540.23 540.791 547.68C537.076 555.865 531.971 563.071 525.837 569.607C519.482 576.377 511.943 581.4 503.509 585.171C495.625 588.693 487.723 592.181 479.895 595.825C477.222 597.068 474.665 598.61 472.219 600.255C471.051 601.044 470.063 602.29 469.383 603.542C468.996 604.253 469.075 605.621 469.535 606.275C469.986 606.911 471.335 607.478 472.04 607.261C474.615 606.462 477.116 605.401 479.58 604.299C483.856 602.385 488.08 600.354 492.338 598.399C492.745 598.214 493.371 598.028 493.663 598.211C493.955 598.395 494.167 599.101 494.061 599.476C490.346 612.518 486.56 625.536 482.841 638.576C478.476 653.895 469.465 665.93 456.908 675.479C450.002 680.729 442.704 685.43 434.683 688.692C428.777 691.094 422.573 692.909 416.356 694.391C397.358 698.918 378.182 702.248 358.53 701.855C356.368 701.814 354.175 702.336 352.039 702.809C351.523 702.922 350.903 703.842 350.848 704.436C350.798 705.026 351.255 705.873 351.76 706.248C352.517 706.811 353.486 707.292 354.409 707.393C358.32 707.83 362.207 708.237 366.193 708.124C380.559 707.713 394.682 705.544 408.708 702.668C411.588 702.076 413.506 702.877 415.257 704.822C417.985 707.841 419.642 711.328 419.89 715.466C420.226 721.007 419.376 726.267 416.842 731.266C414.141 736.608 410.815 741.526 406.396 745.538C400.552 750.846 394.465 755.887 388.46 761.016C384.515 764.379 380.448 767.605 376.576 771.052C371.384 775.673 366.785 780.853 363.372 786.937C360.242 792.524 358.917 798.423 361.305 804.718C362.949 809.047 365.537 812.645 369.894 814.409C373.058 815.689 376.438 817.017 379.783 817.193C402.524 818.39 422.664 811.804 439.471 796.129C445.155 790.827 449.208 784.261 451.789 776.974C454.585 769.075 456.878 760.998 459.349 752.987C461.385 746.386 463.128 739.688 465.418 733.178C471.14 716.915 480.048 702.5 491.241 689.418C511.7 665.513 537.089 648.358 565.246 634.938C580.633 629.561 593.786 620.373 606.372 610.372C611.954 605.938 616.868 600.663 622.067 595.751C623.142 594.736 624.071 593.57 625.188 592.609C626.199 591.738 628.247 591.805 629.386 592.58C630.512 593.345 630.854 594.496 630.856 595.781C630.856 596.27 630.843 596.784 630.7 597.248C627.147 609.051 624.251 621.079 618.013 631.917C611.833 642.649 604.976 652.865 596.737 662.151C592.481 666.95 588.424 671.937 584.473 676.99C576.17 687.621 572.108 699.849 570.821 713.199C570.208 719.569 569.083 725.904 567.888 732.199C565.234 746.164 558.656 758.15 549.007 768.497C547.154 770.484 545.19 772.362 543.323 774.336C543.023 774.653 542.955 775.197 542.782 775.637C543.217 775.735 543.716 776.013 544.081 775.896C546.421 775.127 548.828 774.472 551.031 773.409C562.423 767.909 572.998 761.147 582.511 752.76C601.833 735.729 615.537 714.928 624.346 690.8C631.37 671.557 638.29 652.275 645.463 633.09C652.12 615.285 659.005 597.563 667.995 580.756C674.762 568.101 682.438 556.027 690.957 544.488C704.02 526.792 720.031 512.257 738.554 500.476C746.05 495.711 753.574 490.936 761.39 486.742C767.025 483.717 770.54 479.334 772.468 473.518C773.627 470.017 774.474 466.395 775.215 462.775C780.925 435.025 793.497 410.736 812.337 389.713C823.639 377.098 836.753 366.697 852.106 359.311C858.998 355.995 865.92 352.738 872.829 349.452C877.063 347.438 881.312 345.453 885.524 343.397C893.825 339.35 901.061 333.866 907.502 327.259C912.38 322.253 916.425 316.719 919.182 310.274C920.831 306.415 922.615 302.614 924.21 298.734C930.896 282.449 941.166 268.727 953.9 256.713C976.074 235.797 1001.91 221.447 1031.24 213.329C1038.89 211.212 1046.69 210.125 1054.62 209.859C1058.06 209.743 1061.49 209.205 1064.94 208.968C1068.38 208.728 1071.83 208.684 1075.28 208.444C1078.99 208.192 1081.23 210.385 1083.2 213.04C1084.19 214.367 1083.79 216.742 1082.26 217.622C1080.35 218.716 1078.32 219.604 1076.26 220.413C1070.75 222.58 1065.09 224.399 1059.71 226.823C1039.69 235.83 1021.99 248.24 1006.25 263.527C995.226 274.234 987.263 286.805 982.477 301.41C978.941 312.197 975.599 323.054 971.724 333.717C966.121 349.137 957.981 363.259 948.242 376.408C937.619 390.753 923.878 401.617 908.253 409.941C899.323 414.697 893.937 421.652 891.193 431.149C888.362 440.943 887.061 450.933 886.941 461.094C886.873 466.777 886.915 472.459 886.838 478.138C886.793 481.348 886.642 484.555 886.474 487.762C886.171 493.535 884.492 498.865 881.58 503.883C874.091 516.795 865.035 528.47 854.083 538.6C845.74 546.321 836.921 553.499 827.429 559.776C823.319 562.492 818.916 564.76 814.709 567.338C813.268 568.222 811.942 569.345 810.752 570.546C810.388 570.912 810.422 572.01 810.692 572.572C810.962 573.135 811.738 573.769 812.319 573.798C813.511 573.852 814.841 573.791 815.894 573.302C819.686 571.536 823.539 569.819 827.088 567.63C838.473 560.605 848.76 552.119 858.677 543.176C859.777 542.183 860.85 541.159 861.89 540.104C863.21 538.767 864.812 538.417 866.623 538.512C871.759 538.782 876.238 540.616 879.989 544.128C884.215 548.083 887.226 552.823 889.102 558.314C892.221 567.416 892.469 576.715 890.91 586.095C888.794 598.871 884.106 610.796 878.65 622.462C870.333 640.233 859.422 656.375 847.554 671.901C842.457 678.567 837.123 685.055 831.892 691.627C827.869 696.68 823.111 700.989 818.094 705.011C808.069 713.049 797.711 720.621 786.575 727.081C783.8 728.691 781.132 730.482 778.456 732.251C777.647 732.784 776.835 733.432 776.298 734.215C775.948 734.723 775.805 735.722 776.083 736.221C776.378 736.758 777.296 737.307 777.89 737.256C779.337 737.13 780.859 736.886 782.164 736.283C785.517 734.73 788.94 733.22 792.028 731.219C799.686 726.25 807.543 721.478 814.602 715.739C819.906 711.42 825.341 711.178 831.238 712.453C839.312 714.195 843.738 720.364 843.296 728.708C843.043 733.469 841.412 737.864 839.386 742.126C834.889 751.569 828.779 759.941 822.004 767.823C817.014 773.625 811.795 779.232 806.546 784.805C801.975 789.656 797.131 794.253 792.592 799.138C790.564 801.32 787.446 802.777 787.172 806.314C790.297 806.819 792.843 805.092 795.56 804.098C803.034 801.366 809.917 797.461 816.279 792.754C825.208 786.15 833.929 779.255 842.751 772.507C852.767 764.849 863.055 757.596 874.543 752.255C878.118 750.592 881.765 749.059 885.476 747.744C888.017 746.843 890.698 746.113 893.37 745.864C898.276 745.408 902.603 746.582 905.599 751.077C907.846 754.451 908.005 754.339 910.374 750.95C915.394 743.754 918.678 735.812 920.268 727.206C921.882 718.473 923.251 709.697 924.869 700.964C928.049 683.819 934.135 667.709 942.578 652.493C945.451 647.315 948.615 642.294 951.766 637.276C965.191 615.896 983.204 599.293 1005.15 587.022C1017.85 579.919 1030.88 573.394 1043.8 566.697C1058.7 558.978 1073.75 551.544 1088.55 543.632C1104.48 535.113 1119.36 524.946 1133.17 513.256C1135.6 511.189 1137.84 508.879 1140.14 506.665C1140.31 506.512 1140.48 506.178 1140.41 506.035C1140.33 505.859 1140.02 505.706 1139.78 505.695C1139.31 505.665 1138.8 505.661 1138.33 505.775C1131.99 507.309 1125.58 506.863 1119.17 506.595C1118.43 506.563 1117.69 506.493 1116.96 506.364C1103.38 503.95 1097.36 493.999 1098.46 482.799C1098.94 477.836 1100.37 473.145 1102.43 468.609C1106.79 458.965 1113.63 451.226 1121.17 444.026C1129.24 436.324 1138.15 429.681 1147.52 423.687C1157.71 417.173 1168.1 410.948 1178.21 404.324C1186.26 399.057 1194.25 393.638 1201.9 387.81C1210.96 380.905 1219.14 373.021 1225.6 363.512C1227.99 360.009 1229.87 356.303 1230.92 352.18C1237.28 327.448 1250.15 306.33 1267.04 287.504C1279.64 273.459 1294.1 261.557 1309.64 250.892C1325.13 240.253 1341.56 231.19 1357.98 222.106C1372.45 214.104 1387.02 206.249 1401.16 197.697C1417.08 188.065 1431.33 176.249 1443.53 162.098C1449.37 155.341 1454.46 148.066 1458.69 140.211C1460.41 137.003 1462.18 133.776 1461.13 129.728C1460.52 127.403 1462.26 125.54 1463.87 123.968C1465.21 122.656 1468.22 123.386 1468.91 125.166C1469.25 126.069 1469.52 127.057 1469.55 128.022C1469.74 132.463 1469.86 136.907 1469.96 141.35C1470.16 150.598 1468.23 159.48 1465.44 168.24C1460.09 185.069 1452.13 200.622 1442.68 215.471C1434.04 229.053 1424.07 241.607 1413.33 253.572C1397.97 270.684 1381.33 286.517 1364.66 302.326C1358.39 308.27 1352.32 314.414 1346.29 320.612C1336.07 331.141 1329.86 343.942 1325.85 357.896C1324.21 363.584 1322.79 369.337 1321.38 375.089C1316.01 397.15 1305.17 416.29 1290.57 433.501C1281.26 444.477 1270.99 454.375 1259.37 462.902C1255.75 465.568 1251.91 467.604 1247.52 468.726C1235.82 471.719 1224.2 475.094 1212.11 476.27C1210.69 476.408 1209.26 477.03 1207.95 477.677C1207.44 477.929 1206.98 478.864 1207 479.466C1207.03 480.081 1207.55 480.974 1208.08 481.214C1209.16 481.698 1210.4 481.966 1211.61 482.066C1217.59 482.569 1223.39 481.179 1229.18 479.965C1233.76 479.006 1238.28 477.748 1242.81 476.561C1244.86 476.026 1246.64 476.341 1248.4 477.574C1258.51 484.64 1264.34 494.273 1265.58 506.537C1266.93 519.858 1264.69 532.598 1258.92 544.716C1253.01 557.127 1244.76 567.847 1235.25 577.654C1226.98 586.192 1217.83 593.726 1208.23 600.712C1193.82 611.194 1178.47 620.138 1162.66 628.303C1152.13 633.738 1141.56 639.063 1131.11 644.666C1117.57 651.944 1104.91 660.509 1094.21 671.694C1090.99 675.078 1088.04 678.753 1085.12 682.409C1084.4 683.299 1084.25 684.639 1083.85 685.776C1083.65 685.913 1083.47 686.048 1083.28 686.185C1083.43 685.947 1083.57 685.753 1083.69 685.554Z" fill="#CEFD3B"/>
<path d="M1040.09 390.778C1037.38 390.761 1034.66 390.716 1031.95 390.733C1030.23 390.743 1028.45 390.627 1026.8 390.99C1025.74 391.222 1024.66 392.065 1023.95 392.934C1023.29 393.739 1024.82 395.463 1026.59 395.878C1033.38 397.462 1040.23 397.82 1047.17 397.169C1056.51 396.293 1065.78 395.006 1074.93 392.922C1076.53 392.556 1077.84 392.714 1079.07 393.697C1085.68 398.994 1090.65 405.391 1090.73 414.227C1090.77 418.346 1089.96 422.578 1088.9 426.588C1086.93 434.063 1083.02 440.671 1078.67 447.007C1071.46 457.512 1062.33 466.099 1052.14 473.646C1041.61 481.452 1030.4 488.155 1018.87 494.386C1004.77 502.014 990.673 509.66 976.645 517.435C972.334 519.825 968.283 522.671 964.106 525.299C946.487 536.39 934.857 552.229 927.501 571.458C926.708 573.529 926.018 575.645 925.142 577.678C924.538 579.077 922.919 579.794 921.463 579.561C920.013 579.328 918.706 578.126 918.685 576.543C918.626 572.352 918.331 568.1 918.874 563.972C920.068 554.931 921.221 545.831 923.285 536.964C928.995 512.416 939.983 490.658 958.449 473.033C970.62 461.414 984.667 453.028 1000.65 447.815C1003.46 446.899 1006.26 445.949 1009.03 444.891C1010.4 444.37 1011.79 443.744 1012.92 442.829C1013.52 442.34 1013.75 441.133 1013.71 440.27C1013.7 439.848 1012.66 439.099 1012.12 439.133C1009.45 439.293 1006.68 439.32 1004.13 440.044C999.866 441.246 995.739 442.917 991.574 444.438C989.723 445.114 987.854 445.79 986.091 446.66C984.085 447.649 982.322 447.292 980.482 446.309C969.118 440.251 962.76 431.044 962.124 417.969C961.317 401.439 967.581 387.614 978.089 375.414C987.544 364.436 999.082 356.033 1011.54 348.797C1023.76 341.71 1036.82 336.52 1049.84 331.208C1056.69 328.415 1063.53 325.597 1070.35 322.723C1079.02 319.069 1087.21 314.533 1094.85 309.022C1100.91 304.65 1106.13 299.449 1110.62 293.502C1116 286.403 1120.82 278.963 1125.04 271.107C1129.13 263.492 1133.45 256.014 1138.75 249.143C1148.84 236.033 1161.57 225.964 1175.66 217.552C1186.69 210.968 1198.02 204.987 1210.41 201.273C1211.59 200.922 1212.74 200.395 1213.93 200.2C1216.78 199.735 1219.25 202.584 1218.39 205.391C1217.96 206.781 1217.3 208.176 1216.44 209.342C1214.69 211.719 1212.83 214.042 1210.81 216.211C1195.73 232.457 1183.63 250.693 1174.67 270.955C1171.59 277.934 1169.15 285.203 1166.49 292.373C1165.29 295.61 1164.33 298.932 1163.21 302.197C1155.63 324.184 1142.89 342.677 1125.35 357.857C1117.5 364.639 1109.46 371.186 1100.71 376.8C1096.1 379.752 1091.22 381.982 1085.95 383.491C1070.94 387.769 1055.76 390.811 1040.09 390.778ZM574.003 539.605C573.175 539.443 572.695 539.358 572.218 539.252C570.784 538.931 569.85 536.896 570.729 535.735C571.45 534.781 572.309 533.809 573.324 533.237C574.59 532.523 576.047 531.956 577.481 531.758C583.337 530.958 587.215 527.257 590.696 522.983C597.106 515.126 602.621 506.632 607.583 497.821C613.266 487.729 618.573 477.421 623.999 467.183C631.403 453.215 639.615 439.77 649.145 427.128C665.415 405.544 685.21 388.033 708.919 375.02C715.183 371.582 721.48 368.174 727.936 365.118C734.464 362.029 740.383 358.127 745.807 353.403C746.919 352.438 748.061 351.489 749.284 350.675C750.583 349.809 752.573 350.054 753.231 351.326C753.745 352.315 753.937 353.649 753.768 354.754C753.636 355.623 752.843 356.485 752.154 357.164C748.661 360.621 745.223 364.053 741.081 366.878C731.834 373.184 724.133 381.22 717.857 390.482C714.122 395.989 710.707 401.708 707.632 407.611C701.947 418.547 696.553 429.635 691.172 440.727C682.962 457.655 673.233 473.622 661.514 488.355C651.763 500.611 640.355 511.07 627.393 519.839C620.62 524.422 613.403 528.2 605.659 530.781C597.49 533.505 589.196 535.864 580.924 538.264C578.567 538.944 576.096 539.209 574.003 539.605ZM-22.4302 889.273H1421.01V1031.71H-22.4302V889.273Z" fill="#CEFD3B"/>
</g>
<defs>
<clipPath id="clip0_1_360">
<rect width="1395" height="938" fill="white"/>
</clipPath>
</defs>
</svg>
