<svg width="61" height="70" viewBox="0 0 61 70" fill="none" xmlns="http://www.w3.org/2000/svg">
<g clip-path="url(#clip0_1_14)">
<path d="M30.893 1.24731L22.4434 11.069L22.3106 11.2234L22.1214 11.2221L10.0948 11.1333L10.1722 24.9343L10.1734 25.1514L10.0388 25.3039L1.47987 35.0001L10.0387 44.696L10.1734 44.8486L10.1722 45.0657L10.0948 58.8667L22.1214 58.7778L22.3106 58.7765L22.4434 58.9309L30.893 68.7526L39.3423 58.9309L39.4753 58.7765L39.6644 58.7778L51.691 58.8667L51.6136 45.0657L51.6125 44.8486L51.747 44.696L60.3059 35.0001L51.747 25.3039L51.6125 25.1514L51.6136 24.9343L51.691 11.1333L39.6644 11.2221L39.4753 11.2234L39.3423 11.069L30.893 1.24731V1.24731Z" stroke="black" stroke-width="1.02941"/>
<path d="M40.3482 26.9922C40.2639 26.6618 39.8549 26.6829 39.8112 27.0233C39.5555 29.018 41.029 33.7354 40.5023 35.9184C40.4988 35.9325 40.4954 35.9466 40.4919 35.9607C40.3777 36.4295 39.7767 36.3376 39.7721 35.8512C39.7544 33.9655 39.3221 31.9035 38.3941 30.6407C34.8988 25.8833 38.6314 22.3732 38.4934 21.2354C38.4746 21.081 38.3459 20.9935 38.217 21.0431C38.2117 21.0453 38.2082 21.0467 38.2063 21.0479C37.9836 21.1887 37.774 21.3598 37.5654 21.5261C36.1672 22.6416 34.8862 23.9835 34.1465 25.7904C33.721 26.8294 33.6083 27.9888 33.3653 29.0915C33.2729 29.5111 33.166 29.9264 33.0417 30.3354C32.9026 30.7942 32.7079 31.2547 32.3986 31.5947C32.2606 31.7465 32.0916 31.8586 31.9042 31.9004C31.4131 32.0095 31.1532 31.618 31.0598 31.1575C30.7999 29.8771 30.9907 28.5843 31.0881 27.2956C31.4802 22.1071 26.5498 21.6242 28.3514 14.0587C28.829 12.0534 22.3777 18.6429 24.551 24.3763C24.976 25.4974 24.9369 26.5672 24.4547 27.6484C23.9411 28.799 23.3094 29.8411 22.9978 31.1012C22.8859 31.5542 22.8231 32.0126 22.7735 32.4784C22.7099 33.0774 22.8617 33.9778 22.1718 34.1335C21.8858 34.1981 21.4895 34.1625 21.2527 33.9479C21.0675 33.7799 20.9652 33.5182 20.9043 33.2564C20.6187 32.0328 20.654 30.795 20.7896 29.5459C20.9088 28.4463 20.9924 26.375 19.9958 28.4423C16.785 35.103 16.8999 43.399 20.8199 49.6488C22.3271 52.0517 24.2393 53.5833 26.7415 54.2831C31.829 55.7055 37.9123 55.2749 41.1155 50.2589C42.339 48.3429 43.0738 46.0029 43.5545 43.7112C44.1685 40.7836 44.2858 38.0024 43.3249 35.1615C42.3931 32.4045 41.0753 29.8419 40.3482 26.9922Z" fill="black"/>
</g>
<defs>
<clipPath id="clip0_1_14">
<rect width="61" height="70" fill="white"/>
</clipPath>
</defs>
</svg>
