<svg width="40" height="45" viewBox="0 0 40 45" fill="none" xmlns="http://www.w3.org/2000/svg">
<g clip-path="url(#clip0_2178_7)">
<path d="M19.9525 1.68579L14.6374 7.85944L14.5539 7.9565L14.4349 7.95566L6.86974 7.89982L6.91844 16.5747L6.91917 16.7112L6.83453 16.8071L1.45068 22.9018L6.83447 28.9964L6.91917 29.0923L6.91844 29.2288L6.86974 37.9037L14.4349 37.8478L14.5539 37.847L14.6374 37.9441L19.9525 44.1177L25.2674 37.9441L25.351 37.847L25.47 37.8478L33.0351 37.9037L32.9864 29.2288L32.9857 29.0923L33.0703 28.9964L38.4542 22.9018L33.0703 16.8071L32.9857 16.7112L32.9864 16.5747L33.0351 7.89982L25.47 7.95566L25.351 7.9565L25.2674 7.85944L19.9525 1.68579V1.68579Z" stroke="black" stroke-width="1.02941"/>
<path d="M25.9 17.8684C25.8469 17.6608 25.5897 17.6741 25.5622 17.888C25.4014 19.1418 26.3282 22.1071 25.9969 23.4792C25.9947 23.4881 25.9926 23.4969 25.9904 23.5058C25.9185 23.8005 25.5405 23.7427 25.5376 23.437C25.5265 22.2517 25.2545 20.9556 24.6708 20.1618C22.4721 17.1714 24.8201 14.9651 24.7333 14.2499C24.7214 14.1528 24.6404 14.0978 24.5594 14.129C24.556 14.1304 24.5539 14.1313 24.5526 14.1321C24.4126 14.2206 24.2807 14.3281 24.1495 14.4326C23.27 15.1338 22.4642 15.9773 21.9989 17.1131C21.7312 17.7661 21.6604 18.4949 21.5075 19.188C21.4494 19.4518 21.3821 19.7128 21.304 19.9699C21.2165 20.2583 21.094 20.5478 20.8994 20.7614C20.8126 20.8569 20.7063 20.9273 20.5884 20.9536C20.2795 21.0222 20.1161 20.7761 20.0573 20.4866C19.8938 19.6818 20.0138 18.8692 20.0751 18.0592C20.3217 14.7978 17.2203 14.4943 18.3536 9.73885C18.654 8.47838 14.5959 12.6203 15.963 16.2242C16.2304 16.9289 16.2058 17.6013 15.9025 18.2809C15.5794 19.0042 15.1821 19.6592 14.986 20.4512C14.9156 20.736 14.8761 21.0241 14.845 21.3169C14.805 21.6935 14.9004 22.2594 14.4664 22.3573C14.2865 22.3979 14.0373 22.3755 13.8883 22.2406C13.7718 22.135 13.7074 21.9705 13.6691 21.806C13.4895 21.0368 13.5117 20.2588 13.597 19.4737C13.672 18.7825 13.7246 17.4805 13.0977 18.7799C11.0779 22.9667 11.1502 28.1813 13.6161 32.1098C14.5641 33.6202 15.767 34.5829 17.3409 35.0227C20.5411 35.9169 24.3677 35.6462 26.3827 32.4933C27.1523 31.2889 27.6145 29.8181 27.9168 28.3776C28.3031 26.5373 28.3769 24.7892 27.7724 23.0034C27.1863 21.2705 26.3574 19.6597 25.9 17.8684Z" fill="black"/>
</g>
<defs>
<clipPath id="clip0_2178_7">
<rect width="38.371" height="44" fill="white" transform="translate(0.519775 0.901855)"/>
</clipPath>
</defs>
</svg>
