<svg width="436" height="658" viewBox="0 0 436 658" fill="none" xmlns="http://www.w3.org/2000/svg">
<path d="M435.002 656.485H1.39477L0.997681 137.544C0.997681 137.544 23.5909 131.523 26.6089 120.962C36.9572 84.7531 78.889 94.7384 78.889 94.7384C76.8158 85.7075 85.9638 75.5303 93.9136 69.7009C100.092 65.1683 107.485 61.7598 115.554 59.7638C126.609 57.0274 139.554 56.3905 150.727 59.0104C152.244 59.366 153.769 59.7507 155.206 60.2711C155.937 60.5393 157.978 61.1702 158.24 61.8623C151.609 43.7582 164.609 27.5266 189.816 23.3637C215.022 19.2008 217.15 1.51459 217.15 1.51459C217.15 1.51459 219.271 19.2078 244.485 23.3637C269.691 27.5256 282.7 43.7582 276.061 61.8623C276.314 61.1692 278.364 60.5323 279.094 60.2711C280.532 59.7507 282.056 59.367 283.574 59.0094C294.747 56.3975 307.691 57.0274 318.746 59.7638C326.806 61.7598 334.208 65.1683 340.387 69.7009C348.336 75.5373 357.485 85.7065 355.412 94.7384C355.412 94.7384 397.336 84.7461 407.691 120.962C410.709 131.523 434.581 137.784 434.581 137.784L435.002 656.485Z" fill="#CFFD3C" stroke="black" stroke-width="1.2498"/>
</svg>
